<?xml version="1.0" encoding="UTF-8" standalone="no"?>
<svg xmlns="http://www.w3.org/2000/svg" viewBox="0 0 100 100" width="100" height="100">
  <!-- Card Border Pattern -->
  <g stroke="#e76f51" stroke-width="1" fill="none">
    <!-- Main border -->
    <rect x="5" y="5" width="90" height="90" stroke="#e76f51" stroke-width="2" />
    
    <!-- Inner border -->
    <rect x="10" y="10" width="80" height="80" stroke="#2a9d8f" stroke-width="1" stroke-dasharray="2 2" />
    
    <!-- Corner decorations -->
    <path d="M5,5 C15,15 25,5 25,5" stroke="#2a9d8f" stroke-width="1.5" />
    <path d="M95,5 C85,15 75,5 75,5" stroke="#2a9d8f" stroke-width="1.5" />
    <path d="M5,95 C15,85 25,95 25,95" stroke="#2a9d8f" stroke-width="1.5" />
    <path d="M95,95 C85,85 75,95 75,95" stroke="#2a9d8f" stroke-width="1.5" />
    
    <!-- Decorative elements -->
    <circle cx="5" cy="5" r="3" fill="#e9c46a" />
    <circle cx="95" cy="5" r="3" fill="#e9c46a" />
    <circle cx="5" cy="95" r="3" fill="#e9c46a" />
    <circle cx="95" cy="95" r="3" fill="#e9c46a" />
    
    <!-- Middle points -->
    <circle cx="50" cy="5" r="2" fill="#2a9d8f" />
    <circle cx="50" cy="95" r="2" fill="#2a9d8f" />
    <circle cx="5" cy="50" r="2" fill="#2a9d8f" />
    <circle cx="95" cy="50" r="2" fill="#2a9d8f" />
  </g>
</svg> 