<svg xmlns="http://www.w3.org/2000/svg" width="100" height="100" viewBox="0 0 100 100">
  <defs>
    <linearGradient id="grid-gradient" x1="0%" y1="0%" x2="100%" y2="100%">
      <stop offset="0%" stop-color="#6C00FF" stop-opacity="0.3"/>
      <stop offset="100%" stop-color="#00F0FF" stop-opacity="0.3"/>
    </linearGradient>
  </defs>
  <g fill="none" stroke="url(#grid-gradient)" stroke-width="0.5">
    <!-- Horizontal lines -->
    <path d="M0 10 L100 10" />
    <path d="M0 20 L100 20" />
    <path d="M0 30 L100 30" />
    <path d="M0 40 L100 40" />
    <path d="M0 50 L100 50" />
    <path d="M0 60 L100 60" />
    <path d="M0 70 L100 70" />
    <path d="M0 80 L100 80" />
    <path d="M0 90 L100 90" />
    
    <!-- Vertical lines -->
    <path d="M10 0 L10 100" />
    <path d="M20 0 L20 100" />
    <path d="M30 0 L30 100" />
    <path d="M40 0 L40 100" />
    <path d="M50 0 L50 100" />
    <path d="M60 0 L60 100" />
    <path d="M70 0 L70 100" />
    <path d="M80 0 L80 100" />
    <path d="M90 0 L90 100" />
    
    <!-- Border -->
    <path d="M0 0 L100 0 L100 100 L0 100 Z" />
  </g>
</svg> 