<?xml version="1.0" encoding="UTF-8" standalone="no"?>
<svg xmlns="http://www.w3.org/2000/svg" viewBox="0 0 100 100" width="100" height="100">
  <!-- Ornate Border Pattern -->
  <g stroke="#2a9d8f" stroke-width="1" fill="none">
    <!-- Main border -->
    <rect x="5" y="5" width="90" height="90" stroke="#e76f51" stroke-width="3" />
    
    <!-- Decorative corner elements -->
    <!-- Top left -->
    <path d="M5,15 C25,5 15,25 25,25 S35,15 35,5" stroke="#2a9d8f" stroke-width="2" />
    <circle cx="10" cy="10" r="2" fill="#e9c46a" stroke="none" />
    
    <!-- Top right -->
    <path d="M95,15 C75,5 85,25 75,25 S65,15 65,5" stroke="#2a9d8f" stroke-width="2" />
    <circle cx="90" cy="10" r="2" fill="#e9c46a" stroke="none" />
    
    <!-- Bottom left -->
    <path d="M5,85 C25,95 15,75 25,75 S35,85 35,95" stroke="#2a9d8f" stroke-width="2" />
    <circle cx="10" cy="90" r="2" fill="#e9c46a" stroke="none" />
    
    <!-- Bottom right -->
    <path d="M95,85 C75,95 85,75 75,75 S65,85 65,95" stroke="#2a9d8f" stroke-width="2" />
    <circle cx="90" cy="90" r="2" fill="#e9c46a" stroke="none" />
    
    <!-- Decorative swirls -->
    <path d="M20,5 C30,15 40,5 50,5 S70,15 80,5" stroke="#e76f51" stroke-width="2" />
    <path d="M20,95 C30,85 40,95 50,95 S70,85 80,95" stroke="#e76f51" stroke-width="2" />
    <path d="M5,20 C15,30 5,40 5,50 S15,70 5,80" stroke="#e76f51" stroke-width="2" />
    <path d="M95,20 C85,30 95,40 95,50 S85,70 95,80" stroke="#e76f51" stroke-width="2" />
  </g>
</svg> 