<?xml version="1.0" encoding="UTF-8"?>
<svg width="600px" height="600px" viewBox="0 0 600 600" xmlns="http://www.w3.org/2000/svg">
  <defs>
    <pattern id="border-pattern" x="0" y="0" width="100" height="100" patternUnits="userSpaceOnUse">
      <!-- Main ornate border with swirls -->
      <path d="M10,0 C30,20 70,20 90,0 C90,20 100,40 90,60 C70,40 30,40 10,60 C0,40 10,20 10,0Z" 
            fill="none" stroke="#15803d" stroke-width="2" opacity="0.9"/>
            
      <!-- Secondary swirl pattern -->
      <path d="M25,15 C35,25 65,25 75,15 C75,25 80,35 75,45 C65,35 35,35 25,45 C20,35 25,25 25,15Z" 
            fill="none" stroke="#b43e25" stroke-width="1.5" opacity="0.7"/>
      
      <!-- Center embellishments -->
      <circle cx="50" cy="30" r="3" fill="#15803d" opacity="0.8" />
      <circle cx="30" cy="50" r="2" fill="#b43e25" opacity="0.8" />
      <circle cx="70" cy="50" r="2" fill="#b43e25" opacity="0.8" />
      <circle cx="50" cy="50" r="5" stroke="#15803d" stroke-width="1" fill="none" opacity="0.8" />
      
      <!-- Corner embellishments -->
      <circle cx="10" cy="10" r="3" fill="#b43e25" opacity="0.8" />
      <circle cx="90" cy="10" r="3" fill="#b43e25" opacity="0.8" />
      <circle cx="10" cy="90" r="3" fill="#b43e25" opacity="0.8" />
      <circle cx="90" cy="90" r="3" fill="#b43e25" opacity="0.8" />
      
      <!-- Small decorative swirls -->
      <path d="M15,15 Q20,10 25,15 Q20,20 15,15Z" fill="none" stroke="#15803d" stroke-width="1" opacity="0.8" />
      <path d="M75,15 Q80,10 85,15 Q80,20 75,15Z" fill="none" stroke="#15803d" stroke-width="1" opacity="0.8" />
      <path d="M15,85 Q20,80 25,85 Q20,90 15,85Z" fill="none" stroke="#15803d" stroke-width="1" opacity="0.8" />
      <path d="M75,85 Q80,80 85,85 Q80,90 75,85Z" fill="none" stroke="#15803d" stroke-width="1" opacity="0.8" />
      
      <!-- Additional flourishes -->
      <path d="M50,5 C55,10 60,10 65,5" stroke="#b43e25" stroke-width="1" fill="none" opacity="0.7" />
      <path d="M50,95 C55,90 60,90 65,95" stroke="#b43e25" stroke-width="1" fill="none" opacity="0.7" />
      <path d="M5,50 C10,55 10,60 5,65" stroke="#b43e25" stroke-width="1" fill="none" opacity="0.7" />
      <path d="M95,50 C90,55 90,60 95,65" stroke="#b43e25" stroke-width="1" fill="none" opacity="0.7" />
      
      <!-- Fine detail elements -->
      <circle cx="35" cy="35" r="1" fill="#15803d" opacity="0.6" />
      <circle cx="65" cy="35" r="1" fill="#15803d" opacity="0.6" />
      <circle cx="35" cy="65" r="1" fill="#15803d" opacity="0.6" />
      <circle cx="65" cy="65" r="1" fill="#15803d" opacity="0.6" />
      <circle cx="50" cy="20" r="1" fill="#b43e25" opacity="0.6" />
      <circle cx="50" cy="80" r="1" fill="#b43e25" opacity="0.6" />
      <circle cx="20" cy="50" r="1" fill="#b43e25" opacity="0.6" />
      <circle cx="80" cy="50" r="1" fill="#b43e25" opacity="0.6" />
    </pattern>
  </defs>
  
  <!-- Apply the pattern to a rect -->
  <rect x="0" y="0" width="600" height="600" fill="url(#border-pattern)" />
</svg> 