<?xml version="1.0" encoding="UTF-8" standalone="no"?>
<svg width="800" height="800" viewBox="0 0 800 800" xmlns="http://www.w3.org/2000/svg">
  <!-- Base paper color -->
  <rect width="800" height="800" fill="#F2E8D5"/>
  
  <!-- Noise filter to create texture -->
  <filter id="paperNoise" x="0%" y="0%" width="100%" height="100%">
    <feTurbulence type="fractalNoise" baseFrequency="0.65" numOctaves="3" stitchTiles="stitch" result="noise"/>
    <feColorMatrix type="matrix" values="1 0 0 0 0 0 1 0 0 0 0 0 1 0 0 0 0 0 0.05 0" in="noise" result="noiseFade"/>
    <feBlend mode="multiply" in="SourceGraphic" in2="noiseFade" result="blend"/>
  </filter>
  
  <!-- Amber tint overlay -->
  <rect width="800" height="800" fill="#E0AC30" fill-opacity="0.08"/>
  
  <!-- Apply noise texture -->
  <rect width="800" height="800" fill="#5F4B32" fill-opacity="0.03" filter="url(#paperNoise)"/>
  
  <!-- Light stains -->
  <g opacity="0.1">
    <circle cx="200" cy="150" r="100" fill="#F7F2E4"/>
    <circle cx="600" cy="300" r="120" fill="#F7F2E4"/>
    <circle cx="150" cy="650" r="80" fill="#F7F2E4"/>
    <circle cx="700" cy="700" r="90" fill="#F7F2E4"/>
    <circle cx="400" cy="450" r="150" fill="#F7F2E4"/>
  </g>
  
  <!-- Dark stains -->
  <g opacity="0.08">
    <circle cx="300" cy="100" r="50" fill="#5F4B32"/>
    <circle cx="700" cy="200" r="30" fill="#5F4B32"/>
    <circle cx="100" cy="400" r="40" fill="#5F4B32"/>
    <circle cx="500" cy="600" r="60" fill="#5F4B32"/>
    <circle cx="250" cy="750" r="35" fill="#5F4B32"/>
  </g>
  
  <!-- Very subtle grid lines -->
  <g opacity="0.03" stroke="#5F4B32" stroke-width="0.5">
    <line x1="0" y1="100" x2="800" y2="100"/>
    <line x1="0" y1="300" x2="800" y2="300"/>
    <line x1="0" y1="500" x2="800" y2="500"/>
    <line x1="0" y1="700" x2="800" y2="700"/>
    <line x1="100" y1="0" x2="100" y2="800"/>
    <line x1="300" y1="0" x2="300" y2="800"/>
    <line x1="500" y1="0" x2="500" y2="800"/>
    <line x1="700" y1="0" x2="700" y2="800"/>
  </g>

  <!-- Fiber texture -->
  <g opacity="0.03">
    <path d="M0,0 L800,800" stroke="#5F4B32" stroke-width="0.5" />
    <path d="M800,0 L0,800" stroke="#5F4B32" stroke-width="0.5" />
    <path d="M400,0 L400,800" stroke="#5F4B32" stroke-width="0.3" />
    <path d="M0,400 L800,400" stroke="#5F4B32" stroke-width="0.3" />
  </g>
</svg> 