<?xml version="1.0" encoding="UTF-8" standalone="no"?>
<svg xmlns="http://www.w3.org/2000/svg" viewBox="0 0 48 48" width="48" height="48">
  <!-- Main scroll curl -->
  <path d="M2 2C2 2 10 2 20 2C30 2 46 2 46 2V18C46 18 46 30 46 40C46 46 40 46 40 46H24C24 46 12 46 2 46C2 36 2 20 2 2Z" fill="#F7F2E4" stroke="#AD8453" stroke-width="1.5" />
  
  <!-- Inner curl details -->
  <path d="M10 10C10 10 15 10 20 10C25 10 38 10 38 10V20C38 20 38 25 38 30C38 35 30 38 30 38H20C20 38 15 38 10 38C10 33 10 20 10 10Z" fill="#FFFCF4" stroke="#D2B787" stroke-width="1" />
  
  <!-- Decorative lines -->
  <path d="M38 10C38 10 30 15 24 20C18 25 10 38 10 38" stroke="#D2B787" stroke-width="0.5" stroke-dasharray="2 1" />
  <path d="M10 10C10 10 18 15 24 20C30 25 38 38 38 38" stroke="#D2B787" stroke-width="0.5" stroke-dasharray="2 1" />
  
  <!-- Small accent flourishes -->
  <path d="M10 10C10 10 8 8 6 6C8 8 10 10 10 10Z" stroke="#AD8453" stroke-width="1" />
  <path d="M38 38C38 38 40 40 42 42C40 40 38 38 38 38Z" stroke="#AD8453" stroke-width="1" />
  
  <!-- Edge shadow -->
  <path d="M2 2C2 2 10 2 20 2C30 2 46 2 46 2V5C46 5 30 5 20 5C10 5 5 5 5 5V46C2 46 2 30 2 20C2 10 2 2 2 2Z" fill="#D2B787" fill-opacity="0.3" />
</svg> 