<?xml version="1.0" encoding="UTF-8" standalone="no"?>
<svg xmlns="http://www.w3.org/2000/svg" width="200" height="200" viewBox="0 0 200 200">
  <defs>
    <!-- Noise filter -->
    <filter id="paper-noise" x="0%" y="0%" width="100%" height="100%">
      <feTurbulence type="fractalNoise" baseFrequency="0.5" numOctaves="3" stitchTiles="stitch" result="noise"/>
      <feColorMatrix type="matrix" values="0 0 0 0 0 0 0 0 0 0 0 0 0 0 0 0 0 0 0.05 0" in="noise" result="coloredNoise"/>
      <feBlend mode="multiply" in="SourceGraphic" in2="coloredNoise" result="blend"/>
    </filter>
    
    <!-- Paper texture pattern -->
    <pattern id="paper-pattern" patternUnits="userSpaceOnUse" width="200" height="200">
      <rect width="200" height="200" fill="#f9e6c8" filter="url(#paper-noise)"/>
      
      <!-- Subtle lines -->
      <g stroke="#e76f51" stroke-width="0.2" opacity="0.1">
        <line x1="0" y1="20" x2="200" y2="20" />
        <line x1="0" y1="60" x2="200" y2="60" />
        <line x1="0" y1="100" x2="200" y2="100" />
        <line x1="0" y1="140" x2="200" y2="140" />
        <line x1="0" y1="180" x2="200" y2="180" />
      </g>
      
      <g stroke="#2a9d8f" stroke-width="0.2" opacity="0.1">
        <line x1="20" y1="0" x2="20" y2="200" />
        <line x1="60" y1="0" x2="60" y2="200" />
        <line x1="100" y1="0" x2="100" y2="200" />
        <line x1="140" y1="0" x2="140" y2="200" />
        <line x1="180" y1="0" x2="180" y2="200" />
      </g>
      
      <!-- Subtle specks -->
      <g fill="#2d3047" opacity="0.05">
        <circle cx="10" cy="10" r="1" />
        <circle cx="50" cy="30" r="1" />
        <circle cx="90" cy="70" r="1" />
        <circle cx="130" cy="40" r="1" />
        <circle cx="170" cy="90" r="1" />
        <circle cx="30" cy="110" r="1" />
        <circle cx="70" cy="150" r="1" />
        <circle cx="110" cy="170" r="1" />
        <circle cx="150" cy="130" r="1" />
        <circle cx="190" cy="190" r="1" />
      </g>
    </pattern>
  </defs>
  
  <!-- Background with texture -->
  <rect width="100%" height="100%" fill="url(#paper-pattern)" />
</svg> 