<?xml version="1.0" encoding="UTF-8"?>
<svg width="800px" height="800px" viewBox="0 0 800 800" xmlns="http://www.w3.org/2000/svg">
  <defs>
    <pattern id="ornate-pattern" x="0" y="0" width="200" height="200" patternUnits="userSpaceOnUse">
      <!-- Background -->
      <rect x="0" y="0" width="200" height="200" fill="#e6b964" />
      
      <!-- Main ornate swirl pattern -->
      <path d="M0,0 Q50,25 100,0 Q75,50 100,100 Q50,75 0,100 Q25,50 0,0Z" 
        fill="#15803d" fill-opacity="0.05" transform="translate(0, 0)" />
      <path d="M0,0 Q50,25 100,0 Q75,50 100,100 Q50,75 0,100 Q25,50 0,0Z" 
        fill="#b43e25" fill-opacity="0.05" transform="translate(100, 0)" />
      <path d="M0,0 Q50,25 100,0 Q75,50 100,100 Q50,75 0,100 Q25,50 0,0Z" 
        fill="#15803d" fill-opacity="0.05" transform="translate(0, 100)" />
      <path d="M0,0 Q50,25 100,0 Q75,50 100,100 Q50,75 0,100 Q25,50 0,0Z" 
        fill="#b43e25" fill-opacity="0.05" transform="translate(100, 100)" />
      
      <!-- Decorative swirls -->
      <path d="M0,0 C10,10 30,10 40,0 C30,10 30,30 40,40 C30,30 10,30 0,40 C10,30 10,10 0,0" 
        stroke="#15803d" stroke-width="0.8" fill="none" opacity="0.15" transform="translate(20, 20)" />
      <path d="M0,0 C10,10 30,10 40,0 C30,10 30,30 40,40 C30,30 10,30 0,40 C10,30 10,10 0,0" 
        stroke="#15803d" stroke-width="0.8" fill="none" opacity="0.15" transform="translate(140, 20)" />
      <path d="M0,0 C10,10 30,10 40,0 C30,10 30,30 40,40 C30,30 10,30 0,40 C10,30 10,10 0,0" 
        stroke="#15803d" stroke-width="0.8" fill="none" opacity="0.15" transform="translate(20, 140)" />
      <path d="M0,0 C10,10 30,10 40,0 C30,10 30,30 40,40 C30,30 10,30 0,40 C10,30 10,10 0,0" 
        stroke="#15803d" stroke-width="0.8" fill="none" opacity="0.15" transform="translate(140, 140)" />
      
      <!-- Decorative circles and elements -->
      <circle cx="100" cy="100" r="70" stroke="#27231f" stroke-width="0.5" fill="none" opacity="0.07" />
      <circle cx="100" cy="100" r="50" stroke="#27231f" stroke-width="0.4" fill="none" opacity="0.07" />
      <circle cx="100" cy="100" r="30" stroke="#27231f" stroke-width="0.3" fill="none" opacity="0.07" />
      
      <!-- Decorative corner elements -->
      <path d="M0,0 Q10,5 20,0 Q15,10 20,20 Q10,15 0,20 Q5,10 0,0Z" 
        fill="#15803d" fill-opacity="0.1" transform="translate(0, 0)" />
      <path d="M0,0 Q10,5 20,0 Q15,10 20,20 Q10,15 0,20 Q5,10 0,0Z" 
        fill="#15803d" fill-opacity="0.1" transform="translate(180, 0) scale(-1, 1)" />
      <path d="M0,0 Q10,5 20,0 Q15,10 20,20 Q10,15 0,20 Q5,10 0,0Z" 
        fill="#15803d" fill-opacity="0.1" transform="translate(0, 180) scale(1, -1)" />
      <path d="M0,0 Q10,5 20,0 Q15,10 20,20 Q10,15 0,20 Q5,10 0,0Z" 
        fill="#15803d" fill-opacity="0.1" transform="translate(180, 180) scale(-1, -1)" />
      
      <!-- Ornate flourishes -->
      <path d="M0,0 C5,5 15,5 20,0 C15,5 15,15 20,20 C15,15 5,15 0,20 C5,15 5,5 0,0Z" 
        stroke="#b43e25" stroke-width="0.7" fill="none" opacity="0.15" transform="translate(10, 80)" />
      <path d="M0,0 C5,5 15,5 20,0 C15,5 15,15 20,20 C15,15 5,15 0,20 C5,15 5,5 0,0Z" 
        stroke="#b43e25" stroke-width="0.7" fill="none" opacity="0.15" transform="translate(170, 80)" />
      <path d="M0,0 C5,5 15,5 20,0 C15,5 15,15 20,20 C15,15 5,15 0,20 C5,15 5,5 0,0Z" 
        stroke="#b43e25" stroke-width="0.7" fill="none" opacity="0.15" transform="translate(80, 10)" />
      <path d="M0,0 C5,5 15,5 20,0 C15,5 15,15 20,20 C15,15 5,15 0,20 C5,15 5,5 0,0Z" 
        stroke="#b43e25" stroke-width="0.7" fill="none" opacity="0.15" transform="translate(80, 170)" />
      
      <!-- Small decorative dots -->
      <circle cx="40" cy="40" r="1.5" fill="#b43e25" opacity="0.2" />
      <circle cx="160" cy="40" r="1.5" fill="#b43e25" opacity="0.2" />
      <circle cx="40" cy="160" r="1.5" fill="#b43e25" opacity="0.2" />
      <circle cx="160" cy="160" r="1.5" fill="#b43e25" opacity="0.2" />
      <circle cx="100" cy="40" r="1" fill="#15803d" opacity="0.2" />
      <circle cx="100" cy="160" r="1" fill="#15803d" opacity="0.2" />
      <circle cx="40" cy="100" r="1" fill="#15803d" opacity="0.2" />
      <circle cx="160" cy="100" r="1" fill="#15803d" opacity="0.2" />
    </pattern>
  </defs>
  
  <rect x="0" y="0" width="800" height="800" fill="url(#ornate-pattern)" />
</svg> 