<?xml version="1.0" encoding="UTF-8" standalone="no"?>
<svg xmlns="http://www.w3.org/2000/svg" width="200" height="200" viewBox="0 0 200 200">
  <defs>
    <!-- Noise filter -->
    <filter id="paper-noise" x="0%" y="0%" width="100%" height="100%">
      <feTurbulence type="fractalNoise" baseFrequency="0.5" numOctaves="3" stitchTiles="stitch" result="noise"/>
      <feColorMatrix type="matrix" values="0 0 0 0 0 0 0 0 0 0 0 0 0 0 0 0 0 0 0.07 0" in="noise" result="coloredNoise"/>
      <feBlend mode="multiply" in="SourceGraphic" in2="coloredNoise" result="blend"/>
    </filter>
    
    <!-- Additional texture elements -->
    <filter id="grain-texture" x="0%" y="0%" width="100%" height="100%">
      <feTurbulence type="turbulence" baseFrequency="0.8" numOctaves="2" stitchTiles="stitch" result="grain"/>
      <feColorMatrix type="matrix" values="0 0 0 0 0 0 0 0 0 0 0 0 0 0 0 0 0 0 0.03 0" in="grain" result="coloredGrain"/>
      <feBlend mode="overlay" in="SourceGraphic" in2="coloredGrain" result="blend"/>
    </filter>
    
    <!-- Vintage paper texture pattern with amber/gold color -->
    <pattern id="vintage-pattern" patternUnits="userSpaceOnUse" width="200" height="200">
      <!-- Base color closer to the second image's amber/golden background -->
      <rect width="200" height="200" fill="#f0cb7a" filter="url(#paper-noise)"/>
      
      <!-- Subtle horizontal lines -->
      <g stroke="#b43e25" stroke-width="0.3" opacity="0.08">
        <line x1="0" y1="20" x2="200" y2="20" />
        <line x1="0" y1="60" x2="200" y2="60" />
        <line x1="0" y1="100" x2="200" y2="100" />
        <line x1="0" y1="140" x2="200" y2="140" />
        <line x1="0" y1="180" x2="200" y2="180" />
      </g>
      
      <!-- Subtle vertical lines -->
      <g stroke="#15803d" stroke-width="0.3" opacity="0.08">
        <line x1="20" y1="0" x2="20" y2="200" />
        <line x1="60" y1="0" x2="60" y2="200" />
        <line x1="100" y1="0" x2="100" y2="200" />
        <line x1="140" y1="0" x2="140" y2="200" />
        <line x1="180" y1="0" x2="180" y2="200" />
      </g>
      
      <!-- Subtle texture specks -->
      <g fill="#78350f" opacity="0.05">
        <circle cx="10" cy="10" r="1" />
        <circle cx="50" cy="30" r="1" />
        <circle cx="90" cy="70" r="1" />
        <circle cx="130" cy="40" r="1" />
        <circle cx="170" cy="90" r="1" />
        <circle cx="30" cy="110" r="1" />
        <circle cx="70" cy="150" r="1" />
        <circle cx="110" cy="170" r="1" />
        <circle cx="150" cy="130" r="1" />
        <circle cx="190" cy="190" r="1" />
      </g>
      
      <!-- Additional texture elements with slight variations -->
      <g fill="#78350f" opacity="0.03">
        <circle cx="25" cy="25" r="0.8" />
        <circle cx="75" cy="15" r="0.8" />
        <circle cx="125" cy="85" r="0.8" />
        <circle cx="175" cy="45" r="0.8" />
        <circle cx="15" cy="95" r="0.8" />
        <circle cx="65" cy="135" r="0.8" />
        <circle cx="115" cy="175" r="0.8" />
        <circle cx="165" cy="115" r="0.8" />
        <circle cx="35" cy="155" r="0.8" />
        <circle cx="185" cy="165" r="0.8" />
      </g>
      
      <!-- Subtle diagonal scratches -->
      <g stroke="#78350f" stroke-width="0.2" opacity="0.04">
        <line x1="10" y1="10" x2="30" y2="30" />
        <line x1="170" y1="10" x2="190" y2="30" />
        <line x1="10" y1="170" x2="30" y2="190" />
        <line x1="170" y1="170" x2="190" y2="190" />
        <line x1="80" y1="60" x2="120" y2="100" />
        <line x1="40" y1="120" x2="80" y2="160" />
      </g>
    </pattern>
  </defs>
  
  <!-- Background with enhanced vintage texture -->
  <rect width="100%" height="100%" fill="url(#vintage-pattern)" filter="url(#grain-texture)" />
</svg> 